# xmcd
#
# Track frame offsets: 
#        150
#        20549
#        28957
#        43401
#        59602
#        71981
#        90087
#        101316
#        117225
#        141328
#        150708
#        164278
#        181481
#        197736
#        215991
#        230329
#
# Disc length: 3250 seconds
#
# Revision: 0
# Processed by: cddbd v1.5.2PL0 Copyright (c) Steve Scherf et al.
# Submitted via: ExactAudioCopy v0.95b4
#
DISCID=ec0cb010
DTITLE=Morgan Tandy - Earth Rise
DYEAR=1982
DGENRE=Progressive Rock
TTITLE0=Spaceship Earth
TTITLE1=Earth Rise
TTITLE2=Under the Blue/Asteroid
TTITLE3=Starclipse/Purpose
TTITLE4=One Thousand Worlds
TTITLE5=Escape From The Citadel
TTITLE6=Third Planet
TTITLE7=Suddenly
TTITLE8=Princeton
TTITLE9=Wheels
TTITLE10=Caesar Of The Galaxy
TTITLE11=The Secret
TTITLE12=Zero Zero
TTITLE13=Pictures In My Pillow
TTITLE14=Ria (Backing)
TTITLE15=Starclipse (Outmix)
EXTD=
EXTT0=
EXTT1=
EXTT2=
EXTT3=
EXTT4=
EXTT5=
EXTT6=
EXTT7=
EXTT8=
EXTT9=
EXTT10=
EXTT11=
EXTT12=
EXTT13=
EXTT14=
EXTT15=
PLAYORDER=
